<svg height="512pt" fill="#DBEDF3"  viewBox="0 0 512 512" width="512pt" xmlns="http://www.w3.org/2000/svg">
    <path
        d="m496.984375 500.492188c-14.65625-11.230469-30.511719-20.804688-47.277344-28.542969l-59.933593-27.671875c-2.964844 8.449218-10.714844 27.355468-26.03125 46.367187-6.472657 8.035157-13.535157 15.15625-21.121094 21.355469h169.378906zm0 0" />
    <path
        d="m148.257812 490.644531c-15.316406-19.011719-23.066406-37.917969-26.03125-46.367187l-59.933593 27.671875c-16.765625 7.738281-32.621094 17.3125-47.277344 28.542969l-15.015625 11.507812h169.378906c-7.582031-6.199219-14.648437-13.316406-21.121094-21.355469zm0 0" />
    <path
        d="m353.648438 417.996094v-3.414063c-26.433594 22.222657-60.503907 35.628907-97.648438 35.628907s-71.214844-13.40625-97.644531-35.628907v3.414063c0 5.835937-3.421875 11.183594-8.714844 13.625 0 0 23.148437 80.378906 106.363281 80.378906 83.210938 0 106.359375-80.378906 106.359375-80.378906-5.296875-2.441406-8.714843-7.789063-8.714843-13.625zm0 0" />
    <path
        d="m256 420.195312c67.273438 0 122-54.75 122-122.050781v-54.03125h-244v54.03125c0 67.300781 54.730469 122.050781 122 122.050781zm0 0" />
    <path
        d="m102.359375 214.097656h307.28125c8.285156 0 15-6.71875 15-15.003906 0-8.289062-6.714844-15.007812-15-15.007812h-12.601563v-15.515626c0-48.367187-24.453124-91.117187-61.636718-116.550781v63.316407c0 8.289062-6.714844 15.007812-15 15.007812-8.28125 0-15-6.71875-15-15.007812v-72.859376c0-1.996093.398437-3.902343 1.109375-5.644531-11.222657-4.320312-23.128907-7.246093-35.511719-8.5625v105.472657c0 8.289062-6.71875 15.007812-15 15.007812-8.285156 0-15-6.71875-15-15.007812v-105.472657c-12.382812 1.3125-24.285156 4.242188-35.503906 8.558594.707031 1.746094 1.105468 3.648437 1.105468 5.648437v72.859376c0 8.289062-6.714843 15.007812-15 15.007812-8.285156 0-15-6.71875-15-15.007812v-63.324219c-37.1875 25.433593-61.644531 68.191406-61.644531 116.558593v15.515626h-12.601562c-8.28125 0-15 6.71875-15 15.007812 0 8.285156 6.71875 15.003906 15.003906 15.003906zm0 0" />
    <path
        d="m335.402344 42.476562c0-8.289062-6.714844-15.007812-15-15.007812-6.285156 0-11.664063 3.875-13.890625 9.367188 10.257812 3.949218 19.945312 9.0625 28.890625 15.183593zm0 0" />
    <path
        d="m191.605469 27.46875c-8.285157 0-15 6.71875-15 15.007812v9.535157c8.945312-6.121094 18.632812-11.234375 28.890625-15.183594-2.230469-5.484375-7.605469-9.359375-13.890625-9.359375zm0 0" />
    <path
        d="m271 28.269531v-13.261719c0-8.289062-6.714844-15.007812-15-15.007812s-15 6.71875-15 15.007812v13.261719c4.929688-.527343 9.933594-.800781 15-.800781s10.070312.273438 15 .800781zm0 0" />
    </svg>