<svg id="Capa_1" enable-background="new 0 0 512 512" fill="#DBEDF3"  height="512" viewBox="0 0 512 512" width="512"
    xmlns="http://www.w3.org/2000/svg">
    <g>
        <g>
            <path
                d="m448.282 293.805v-96.138c0-4.142-3.357-7.5-7.5-7.5s-7.5 3.358-7.5 7.5v96.056h-11.55v-22.589c0-15.164-12.337-27.5-27.5-27.5h-8.606v-109.25h47.656v27.951c0 4.142 3.357 7.5 7.5 7.5s7.5-3.358 7.5-7.5v-27.951h9.801c6.893 0 12.5-5.607 12.5-12.5v-16.173h8.43c18.189 0 32.987-14.798 32.987-32.987s-14.798-32.987-32.987-32.987h-30.73v-.244c0-6.893-5.607-12.5-12.5-12.5h-52.656c-6.893 0-12.5 5.607-12.5 12.5v27.579h-8.783c-.928 0-1.774-.509-2.209-1.329l-15.605-29.445c-3.041-5.74-8.966-9.306-15.463-9.306h-11.567c-4.143 0-7.5 3.358-7.5 7.5s3.357 7.5 7.5 7.5h11.567c.928 0 1.774.509 2.209 1.329l15.604 29.444c3.041 5.74 8.966 9.306 15.463 9.306h93.74v37.312h-264.297v-44.891c0-17.92 14.58-32.5 32.5-32.5h57.547c4.143 0 7.5-3.358 7.5-7.5s-3.357-7.5-7.5-7.5h-57.547c-26.191 0-47.5 21.309-47.5 47.5v47.391c0 6.893 5.607 12.5 12.5 12.5h16.091l5.842 17.98c2.35 7.233 9.038 12.093 16.644 12.093h15.571v22.958c0 4.142 3.358 7.5 7.5 7.5s7.5-3.358 7.5-7.5v-22.958h15.571c7.604 0 14.293-4.859 16.644-12.092l5.842-17.981h74.634v109.25h-5.421c-15.163 0-27.5 12.336-27.5 27.5v22.589h-45.532v-22.589c0-15.164-12.337-27.5-27.5-27.5h-29.027c-15.164 0-27.5 12.336-27.5 27.5v22.589h-45.532v-22.589c0-15.164-12.336-27.5-27.5-27.5h-29.028c-15.164 0-27.5 12.336-27.5 27.5v22.589h-13.739c-35.756 0-64.846 29.09-64.846 64.846 0 29.081 19.243 53.751 45.665 61.949v51.991c0 6.893 5.607 12.5 12.5 12.5h393.547c6.893 0 12.5-5.607 12.5-12.5v-51.991c26.421-8.198 45.664-32.868 45.664-61.949 0-34.665-27.343-63.063-61.594-64.763zm-15-226.734h-47.656v-25.079h47.656zm15 0v-12.336h30.73c9.918 0 17.987 8.069 17.987 17.987s-8.069 17.987-17.987 17.987h-8.43v-11.138c0-6.893-5.607-12.5-12.5-12.5zm-172.398 80.658c-.336 1.033-1.291 1.728-2.378 1.728h-46.143c-1.086 0-2.042-.694-2.377-1.728l-4.336-13.346h59.571zm76.821 123.404c0-6.893 5.607-12.5 12.5-12.5h29.027c6.893 0 12.5 5.607 12.5 12.5v22.589h-54.027zm-129.559 0c0-6.893 5.607-12.5 12.5-12.5h29.027c6.893 0 12.5 5.607 12.5 12.5v22.589h-54.027zm-129.561 0c0-6.893 5.607-12.5 12.5-12.5h29.028c6.893 0 12.5 5.607 12.5 12.5v22.589h-54.028zm8.791 198.875h-41.711v-46.743c1.384.089 2.776.149 4.182.149h37.53v46.594zm346.836 0h-41.712v-46.594h37.53c1.406 0 2.798-.061 4.182-.149zm-4.182-61.593h-242.03c-4.142 0-7.5 3.358-7.5 7.5s3.358 7.5 7.5 7.5h189.5v46.594h-275.124v-46.594h50.291c4.142 0 7.5-3.358 7.5-7.5s-3.358-7.5-7.5-7.5h-102.821c-27.485 0-49.846-22.361-49.846-49.847s22.361-49.846 49.846-49.846h380.184c27.485 0 49.846 22.361 49.846 49.846s-22.36 49.847-49.846 49.847z" />
            <circle cx="445.03" cy="358.568" r="7.5" />
            <circle cx="137.438" cy="358.568" r="7.5" />
            <circle cx="184.438" cy="358.568" r="7.5" />
            <circle cx="231.438" cy="358.568" r="7.5" />
            <circle cx="278.438" cy="358.568" r="7.5" />
            <ellipse cx="325.438" cy="358.568" rx="7.5" ry="7.5" transform="matrix(.987 -.16 .16 .987 -53.234 56.76)" />
            <circle cx="372.438" cy="358.568" r="7.5" />
            <circle cx="397.5" cy="98.5" r="7.5" />
            <circle cx="422.5" cy="98.5" r="7.5" />
            <path
                d="m267.514 61.514h-33.027c-11.021 0-19.986 8.966-19.986 19.986s8.966 19.986 19.986 19.986h33.027c11.021 0 19.986-8.966 19.986-19.986s-8.966-19.986-19.986-19.986zm0 24.972h-33.027c-2.703 0-4.986-2.284-4.986-4.986s2.284-4.986 4.986-4.986h33.027c2.703 0 4.986 2.284 4.986 4.986s-2.283 4.986-4.986 4.986z" />
            <path
                d="m445.03 321.722h-380.184c-20.317 0-36.846 16.529-36.846 36.846s16.529 36.846 36.846 36.846h380.184c20.316 0 36.846-16.529 36.846-36.846s-16.529-36.846-36.846-36.846zm-380.184 58.692c-12.046 0-21.846-9.8-21.846-21.846s9.8-21.846 21.846-21.846 21.846 9.8 21.846 21.846-9.8 21.846-21.846 21.846zm350.535.001h-320.887c4.52-6.117 7.198-13.674 7.198-21.846s-2.678-15.729-7.198-21.846h320.887c-4.52 6.117-7.198 13.674-7.198 21.846.001 8.172 2.679 15.728 7.198 21.846zm29.649-.001c-12.046 0-21.847-9.8-21.847-21.846s9.801-21.846 21.847-21.846 21.846 9.8 21.846 21.846-9.8 21.846-21.846 21.846z" />
            <circle cx="64.846" cy="358.568" r="7.5" />
            <path
                d="m340 453.5h32c4.143 0 7.5-3.358 7.5-7.5s-3.357-7.5-7.5-7.5h-32c-4.143 0-7.5 3.358-7.5 7.5s3.357 7.5 7.5 7.5z" />
        </g>
    </g>
</svg>