<?xml version="1.0"?>
<svg xmlns="http://www.w3.org/2000/svg" fill="#DBEDF3"  viewBox="0 0 512 512" width="512" height="512">
    <g id="solid">
        <rect x="152" y="416" width="96" height="16" />
        <path d="M112,206a2,2,0,0,0,2,2h84a2,2,0,0,0,2-2V192H112Z" />
        <path
            d="M290.211,369.689A55.117,55.117,0,0,0,296,345.167V280H104v65.167a55.109,55.109,0,0,0,5.789,24.521A54.531,54.531,0,0,0,158.833,400h82.334A54.532,54.532,0,0,0,290.211,369.689ZM272,342.111a36.744,36.744,0,0,1-20.422,33.044,8,8,0,0,1-7.156-14.31A20.833,20.833,0,0,0,256,342.111V336a8,8,0,0,1,16,0ZM272,312a8,8,0,0,1-16,0v-8a8,8,0,0,1,16,0Z" />
        <rect x="128" y="224" width="16" height="16" />
        <path
            d="M72,456a8.009,8.009,0,0,0,8,8h8a8,8,0,0,1,8,8v8h20.687l13.656-13.657A8,8,0,0,1,136,464H400a8.005,8.005,0,0,1,4.438,1.344L426.422,480H440V448H80A8.009,8.009,0,0,0,72,456Z" />
        <path
            d="M338.474,192l14.506,53.193A199.162,199.162,0,0,1,360,297.6v7.2A199.3,199.3,0,0,1,314.115,432h124.3l-14.872-81.8A307.039,307.039,0,0,1,436.424,192Z" />
        <circle cx="296" cy="112" r="16" />
        <circle cx="376" cy="112" r="16" />
        <path d="M96,260a4,4,0,0,0,4,4H300a4,4,0,0,0,0-8H100A4,4,0,0,0,96,260Z" />
        <path
            d="M440,112h32v-3.155A60.912,60.912,0,0,0,470.629,96H440a8,8,0,0,1,0-16h24.72c-.9-1.672-1.876-3.312-2.939-4.906A60.724,60.724,0,0,0,411.155,48H408V32a8,8,0,0,0-16,0V48H112A40.045,40.045,0,0,0,72,88v48a40.045,40.045,0,0,0,40,40H443.719l10.666-16H440a8,8,0,0,1,0-16h24c.236,0,.469.015.7.035A60.508,60.508,0,0,0,470.629,128H440a8,8,0,0,1,0-16ZM120,88H104a8,8,0,0,1,0-16h16a8,8,0,0,1,0,16Zm72,0H152a8,8,0,0,1,0-16h40a8,8,0,0,1,0,16Zm104,56a32,32,0,1,1,32-32A32.036,32.036,0,0,1,296,144Zm80,0a32,32,0,1,1,32-32A32.036,32.036,0,0,1,376,144Z" />
    </g>
</svg>