<svg id="Capa_1" fill="#DBEDF3" enable-background="new 0 0 512 512" height="512" viewBox="0 0 512 512" width="512"
    xmlns="http://www.w3.org/2000/svg">
    <g>
        <path
            d="m482 452h-452c-16.569 0-30 13.431-30 30s13.431 30 30 30h452c16.569 0 30-13.431 30-30s-13.431-30-30-30z" />
        <path
            d="m221 327v35c0 33.137 26.863 60 60 60h110c33.137 0 60-26.863 60-60v-35c0-8.284-6.716-15-15-15h-200c-8.284 0-15 6.716-15 15z" />
        <path
            d="m306 237c-24.813 0-45 20.187-45 45h30c0-8.271 6.729-15 15-15h15v15h30v-15h15c8.271 0 15 6.729 15 15h30c0-24.813-20.187-45-45-45h-15v-42h5c24.813 0 45-20.187 45-45h-130c0 24.813 20.187 45 45 45h5v42z" />
        <path
            d="m151 120h269.996c33.137 0 60-26.863 60-60 0-33.137-26.863-60-60-60h-329.996c-33.137 0-60 26.863-60 60v362h120zm195-74h60c8.284 0 15 6.716 15 15s-6.716 15-15 15h-60c-8.284 0-15-6.716-15-15s6.716-15 15-15zm-240 289c0 8.284-6.716 15-15 15s-15-6.716-15-15v-60c0-8.284 6.716-15 15-15s15 6.716 15 15zm-15-105c-8.284 0-15-6.716-15-15s6.716-15 15-15 15 6.716 15 15-6.716 15-15 15zm0-60c-8.284 0-15-6.716-15-15s6.716-15 15-15 15 6.716 15 15-6.716 15-15 15z" />
    </g>
</svg>