<svg id="Layer_1" fill="#DBEDF3" enable-background="new 0 0 512 512" height="512" viewBox="0 0 512 512" width="512"
    xmlns="http://www.w3.org/2000/svg">
    <g clip-rule="evenodd" fill-rule="evenodd">
        <path
            d="m512 128.533v-113.533c0-8.284-6.716-15-15-15h-482c-8.284 0-15 6.716-15 15v113.533zm-111.4-64.266c8.28 0 15 6.72 15 15 0 8.272-6.72 15-15 15-8.273 0-15-6.728-15-15 0-8.28 6.727-15 15-15zm-96.4 0c8.28 0 15 6.72 15 15 0 8.272-6.72 15-15 15-8.273 0-15-6.728-15-15 0-8.28 6.727-15 15-15zm-96.4 0c8.28 0 15 6.72 15 15 0 8.272-6.72 15-15 15-8.273 0-15-6.728-15-15 0-8.28 6.727-15 15-15zm-96.4 0c8.28 0 15 6.72 15 15 0 8.272-6.72 15-15 15-8.273 0-15-6.728-15-15 0-8.28 6.727-15 15-15z" />
        <path
            d="m417.733 417.733v-259.2h-323.466v259.2zm-274.2-224.933h224.934c8.284 0 15 6.716 15 15s-6.716 15-15 15h-224.934c-8.284 0-15-6.716-15-15s6.716-15 15-15z" />
        <path
            d="m447.733 158.533v274.2c0 8.284-6.716 15-15 15h-353.466c-8.284 0-15-6.716-15-15v-274.2h-64.267v338.467c0 8.284 6.716 15 15 15h482c8.284 0 15-6.716 15-15v-338.467z" />
    </g>
</svg>