<?xml version="1.0" encoding="utf-8"?>
<!-- Generator: Adobe Illustrator 23.0.0, SVG Export Plug-In . SVG Version: 6.00 Build 0)  -->
<svg version="1.1" id="Capa_1" xmlns="http://www.w3.org/2000/svg" xmlns:xlink="http://www.w3.org/1999/xlink" x="0px" y="0px"
	 viewBox="0 0 512 512" style="enable-background:new 0 0 512 512;" xml:space="preserve">
<style type="text/css">
	.st0{fill:#C8C8C8;}
	.st1{fill:#AAAAAA;}
	.st2{fill:#1578FF;}
	.st3{fill:#0051BF;}
	.st4{opacity:0.28;}
	.st5{fill:#001CD4;}
	.st6{opacity:0.54;}
	.st7{fill:#1600D4;}
	.st8{fill:#E3E3E3;}
</style>
<circle class="st0" cx="256" cy="256" r="256"/>
<path class="st1" d="M256,478.5c-9.8,0-19.6-0.6-29.2-1.9c-51.8-6.8-99.8-31.9-135.2-70.7c-4.9-5.4-9.5-10.9-13.7-16.6
	c-12.8-17.1-23.1-35.9-30.5-55.8c-9.2-24.8-13.9-50.9-13.9-77.5c0-59.4,23.1-115.3,65.2-157.3c42-42,97.9-65.2,157.3-65.2
	c26.7,0,52.8,4.7,77.5,13.9c20,7.4,38.7,17.7,55.8,30.5c5.6,4.2,11.2,8.8,16.6,13.7c38.8,35.4,63.9,83.4,70.7,135.2
	c1.3,9.6,1.9,19.4,1.9,29.2c0,59.4-23.1,115.3-65.2,157.3C371.3,455.4,315.4,478.5,256,478.5z"/>
<path class="st2" d="M466.1,256c0,116.1-94.1,210.1-210.1,210.1c-9.4,0-18.6-0.6-27.6-1.8c-50.3-6.6-95.1-31-127.7-66.7
	c-4.6-5-8.9-10.2-12.9-15.6c-12-16-21.7-33.7-28.8-52.7c-8.5-22.8-13.1-47.5-13.1-73.2c0-116.1,94.1-210.1,210.1-210.1
	c25.8,0,50.4,4.6,73.2,13.1c19,7.1,36.8,16.8,52.7,28.8c5.4,4.1,10.7,8.4,15.7,13c35.7,32.6,60.1,77.3,66.7,127.7
	C465.5,237.4,466.1,246.6,466.1,256z"/>
<g>
	<path class="st3" d="M160.7,358V154c0-6.8,5.5-12.4,12.4-12.4h61.8c6.8,0,12.4,5.5,12.4,12.4V358c0,6.8-5.5,12.4-12.4,12.4h-61.8
		C166.2,370.4,160.7,364.9,160.7,358z"/>
	<path class="st3" d="M264.8,358V154c0-6.8,5.5-12.4,12.4-12.4h61.8c6.8,0,12.4,5.5,12.4,12.4V358c0,6.8-5.5,12.4-12.4,12.4h-61.8
		C270.3,370.4,264.8,364.9,264.8,358z"/>
</g>
<g class="st4">
	<path class="st5" d="M382,87.8l-53.8,53.8L264.8,205l-17.5,17.5L160.7,309L87.8,382c-12-16-21.7-33.7-28.8-52.7l184.3-184.3
		L329.2,59C348.3,66,366,75.8,382,87.8z"/>
	<path class="st5" d="M464.3,228.4L351.3,341.5L228.4,464.3c-50.3-6.6-95.1-31-127.7-66.7l146.5-146.5l17.5-17.5l85.2-85.2
		l47.7-47.7C433.3,133.3,457.8,178.1,464.3,228.4z"/>
</g>
<g class="st6">
	<path class="st7" d="M247.2,154v68.5L160.7,309v-81.5l82.6-82.6C245.7,147.2,247.2,150.4,247.2,154z"/>
	<path class="st7" d="M160.7,337.6l86.5-86.5V358c0,6.8-5.5,12.4-12.4,12.4h-61.8c-6.8,0-12.4-5.5-12.4-12.4L160.7,337.6
		L160.7,337.6z"/>
	<path class="st7" d="M328.1,141.6L264.8,205v-51c0-6.8,5.5-12.4,12.4-12.4H328.1z"/>
	<path class="st7" d="M351.3,154v187.5l-28.9,28.9h-45.2c-6.8,0-12.4-5.5-12.4-12.4V233.6l85.2-85.2
		C350.8,150.1,351.3,152,351.3,154z"/>
</g>
<g>
	<path class="st8" d="M228.7,358h-49.4c-3.4,0-6.2-2.8-6.2-6.2V160.1c0-3.4,2.8-6.2,6.2-6.2h49.4c3.4,0,6.2,2.8,6.2,6.2v191.7
		C234.9,355.3,232.1,358,228.7,358z"/>
	<path class="st8" d="M332.8,358h-49.4c-3.4,0-6.2-2.8-6.2-6.2V160.1c0-3.4,2.8-6.2,6.2-6.2h49.4c3.4,0,6.2,2.8,6.2,6.2v191.7
		C338.9,355.3,336.2,358,332.8,358z"/>
</g>
</svg>
