<?xml version="1.0" encoding="iso-8859-1"?>
<!-- Generator: Adobe Illustrator 19.0.0, SVG Export Plug-In . SVG Version: 6.00 Build 0)  -->
<svg version="1.1" id="Capa_1" xmlns="http://www.w3.org/2000/svg" xmlns:xlink="http://www.w3.org/1999/xlink" x="0px" y="0px"
	 viewBox="0 0 512 512" style="enable-background:new 0 0 512 512;" xml:space="preserve">
<circle style="fill:#C8C8C8;" cx="256" cy="256" r="256"/>
<path style="fill:#AAAAAA;" d="M256,478.509c-9.81,0-19.641-0.643-29.219-1.909c-51.787-6.793-99.8-31.887-135.181-70.658
	c-4.884-5.359-9.499-10.936-13.719-16.579c-12.81-17.073-23.075-35.858-30.499-55.817c-9.217-24.794-13.89-50.883-13.89-77.545
	c0-59.434,23.145-115.311,65.172-157.337C140.689,56.636,196.566,33.491,256,33.491c26.662,0,52.751,4.673,77.543,13.889
	c19.95,7.421,38.733,17.682,55.832,30.5c5.623,4.214,11.195,8.826,16.56,13.705c38.794,35.412,63.884,83.426,70.666,135.21
	c1.265,9.563,1.907,19.394,1.907,29.204c0,59.434-23.145,115.311-65.172,157.337C371.311,455.364,315.434,478.509,256,478.509z"/>
<path style="fill:#FC4747;" d="M466.147,256c0,116.06-94.087,210.147-210.147,210.147c-9.354,0-18.564-0.608-27.599-1.803
	c-50.345-6.603-95.086-31.029-127.67-66.735c-4.564-5.007-8.89-10.219-12.949-15.648c-11.981-15.968-21.737-33.697-28.814-52.725
	C50.489,306.427,45.853,281.755,45.853,256C45.853,139.94,139.94,45.853,256,45.853c25.755,0,50.427,4.636,73.236,13.114
	c19.027,7.077,36.757,16.833,52.725,28.804c5.429,4.069,10.652,8.406,15.659,12.96c35.706,32.595,60.132,77.325,66.725,127.67
	C465.539,237.436,466.147,246.646,466.147,256z"/>
<g>
	<path style="fill:#E20F0A;" d="M160.703,358.042V153.958c0-6.827,5.535-12.362,12.362-12.362h61.808
		c6.827,0,12.362,5.535,12.362,12.362v204.085c0,6.827-5.535,12.362-12.362,12.362h-61.808
		C166.238,370.404,160.703,364.87,160.703,358.042z"/>
	<path style="fill:#E20F0A;" d="M264.765,358.042V153.958c0-6.827,5.535-12.362,12.362-12.362h61.808
		c6.827,0,12.362,5.535,12.362,12.362v204.085c0,6.827-5.535,12.362-12.362,12.362h-61.808
		C270.299,370.404,264.765,364.87,264.765,358.042z"/>
</g>
<g>
	<path style="fill:#FF6E6E;" d="M381.96,87.771l-53.827,53.827l-63.366,63.366l-17.534,17.534l-86.525,86.535L87.782,381.96
		c-11.981-15.968-21.737-33.697-28.814-52.725l184.33-184.33l85.938-85.938C348.263,66.045,365.992,75.801,381.96,87.771z"/>
	<path style="fill:#FF6E6E;" d="M464.344,228.401L351.292,341.453l-122.89,122.89c-50.345-6.603-95.086-31.029-127.67-66.735
		l146.502-146.502l17.534-17.523l85.196-85.196l47.656-47.656C433.325,133.326,457.751,178.056,464.344,228.401z"/>
</g>
<g>
	<path style="fill:#FC4747;" d="M247.233,153.961v68.538l-86.525,86.535v-81.539l82.59-82.59
		C245.719,147.172,247.233,150.386,247.233,153.961z"/>
	<path style="fill:#FC4747;" d="M160.708,337.632l86.525-86.525V358.04c0,6.83-5.532,12.362-12.362,12.362H173.07
		c-6.83,0-12.362-5.532-12.362-12.362L160.708,337.632L160.708,337.632z"/>
	<path style="fill:#FC4747;" d="M328.133,141.598l-63.366,63.366V153.96c0-6.83,5.532-12.362,12.362-12.362H328.133z"/>
	<path style="fill:#FC4747;" d="M351.292,153.961v187.493l-28.948,28.948h-45.215c-6.83,0-12.362-5.532-12.362-12.362V233.583
		l85.196-85.196C350.818,150.066,351.292,151.952,351.292,153.961z"/>
</g>
<g>
	<path style="fill:#E3E3E3;" d="M228.692,358.043h-49.446c-3.414,0-6.181-2.767-6.181-6.181V160.138
		c0-3.414,2.767-6.181,6.181-6.181h49.446c3.414,0,6.181,2.767,6.181,6.181v191.723
		C234.873,355.275,232.106,358.043,228.692,358.043z"/>
	<path style="fill:#E3E3E3;" d="M332.753,358.043h-49.446c-3.414,0-6.181-2.767-6.181-6.181V160.138
		c0-3.414,2.767-6.181,6.181-6.181h49.446c3.414,0,6.181,2.767,6.181,6.181v191.723
		C338.935,355.275,336.167,358.043,332.753,358.043z"/>
</g>
<g>
</g>
<g>
</g>
<g>
</g>
<g>
</g>
<g>
</g>
<g>
</g>
<g>
</g>
<g>
</g>
<g>
</g>
<g>
</g>
<g>
</g>
<g>
</g>
<g>
</g>
<g>
</g>
<g>
</g>
</svg>
