<svg id="Capa_1" fill="#DBEDF3"  enable-background="new 0 0 512.05 512.05" height="512" viewBox="0 0 512.05 512.05" width="512"
    xmlns="http://www.w3.org/2000/svg">
    <g>
        <path
            d="m256 512.025c-140.959 0-256-115.05-256-256 0-140.959 115.05-256 256-256 140.959 0 256 115.05 256 256 0 140.959-115.05 256-256 256z"
            fill="#edf5ff" />
        <path
            d="m436.812 436.837c100.301-100.3 100.335-261.29 0-361.624-48.485-48.486-112.699-75.188-180.812-75.188v512c68.113 0 132.327-26.702 180.812-75.188z"
            fill="#d5e8fe" />
        <path
            d="m256 367.025c-61.206 0-111-49.794-111-111 0-32.026 13.837-62.493 37.965-83.589 6.237-5.453 15.713-4.818 21.166 1.418s4.818 15.713-1.418 21.166c-17.612 15.399-27.713 37.635-27.713 61.005 0 44.664 36.336 81 81 81s81-36.336 81-81c0-23.142-9.936-45.232-27.26-60.607-6.196-5.499-6.761-14.979-1.263-21.176 5.499-6.197 14.979-6.761 21.176-1.263 23.735 21.065 37.347 51.333 37.347 83.046 0 61.206-49.794 111-111 111z"
            fill="#5ab267" />
        <path
            d="m367 256.025c0-31.713-13.612-61.981-37.347-83.045-6.197-5.499-15.677-4.934-21.176 1.263-5.499 6.196-4.934 15.677 1.263 21.176 17.324 15.375 27.26 37.465 27.26 60.607 0 44.664-36.336 81-81 81v30c61.206-.001 111-49.795 111-111.001z"
            fill="#288c64" />
        <path
            d="m256 231.025c-8.284 0-15-6.716-15-15v-80c0-8.284 6.716-15 15-15s15 6.716 15 15v80c0 8.284-6.716 15-15 15z"
            fill="#5ab267" />
        <path d="m271 216.025v-80c0-8.284-6.716-15-15-15v110c8.284 0 15-6.716 15-15z" fill="#288c64" />
    </g>
</svg>