<svg enable-background="new 0 0 24 24" fill="#DBEDF3" height="512" viewBox="0 0 24 24" width="512" xmlns="http://www.w3.org/2000/svg">
    <path
        d="m23.806.104c-.123-.094-.282-.128-.432-.088l-16.374 4.272v-2.788c0-.173-.09-.334-.237-.425-.147-.092-.332-.1-.486-.022l-2 1c-.17.085-.277.258-.277.447v2.57l-3.626.946c-.22.058-.374.256-.374.484v2c0 .155.072.301.194.396.089.068.197.104.306.104.042 0 .084-.005.126-.016l1.374-.359v14.875c0 .276.224.5.5.5h1.5v-12h16v12h1.5c.276 0 .5-.224.5-.5v-20.092l1.626-.424c.22-.058.374-.256.374-.484v-2c0-.155-.072-.301-.194-.396z" />
    <path
        d="m9.25 19v.75c0 .414-.336.75-.75.75s-.75-.336-.75-.75v-.75h-1.75c-.276 0-.5.224-.5.5v4c0 .276.224.5.5.5h5c.276 0 .5-.224.5-.5v-4c0-.276-.224-.5-.5-.5z" />
    <path
        d="m16.25 19v.75c0 .414-.336.75-.75.75s-.75-.336-.75-.75v-.75h-1.75c-.276 0-.5.224-.5.5v4c0 .276.224.5.5.5h5c.276 0 .5-.224.5-.5v-4c0-.276-.224-.5-.5-.5z" />
    <path
        d="m12.75 13v.75c0 .414-.336.75-.75.75s-.75-.336-.75-.75v-.75h-1.75c-.276 0-.5.224-.5.5v4c0 .276.224.5.5.5h5c.276 0 .5-.224.5-.5v-4c0-.276-.224-.5-.5-.5z" />
    </svg>